<svg width="24" height="32" viewBox="0 0 24 32" fill="none" xmlns="http://www.w3.org/2000/svg">
<path d="M3.66683 28.4998C1.8335 28.4998 0.333496 29.9998 0.333496 31.8332H23.6668C23.6668 29.9998 22.1668 28.4998 20.3335 28.4998H13.6668V25.1665H18.6668C20.5002 25.1665 22.0002 23.6665 22.0002 21.8332H8.66683C5.90016 21.8332 3.66683 19.5998 3.66683 16.8332C3.66683 15.0165 4.65016 13.4332 6.11683 12.5498C6.80016 13.5332 7.8835 14.2165 9.16683 14.3165C10.3335 14.4165 11.4335 13.9998 12.2502 13.2832L13.2335 15.9665L14.8002 15.3998L15.3668 16.9665L18.5002 15.8332L17.9335 14.2665L19.5002 13.6998L14.9335 1.1665L13.3668 1.73317L12.8002 0.166504L9.66683 1.29984L10.2335 2.8665L8.66683 3.44984L9.60016 6.03317C7.65016 5.9665 5.95016 7.28317 5.46683 9.13317C2.45016 10.3998 0.333496 13.3665 0.333496 16.8332C0.333496 21.4332 4.06683 25.1665 8.66683 25.1665V28.4998H3.66683ZM13.4335 4.3665L16.2835 12.1998L14.7168 12.7665L11.8668 4.93317L13.4335 4.3665ZM9.50016 8.49984C10.4168 8.49984 11.1668 9.24984 11.1668 10.1665C11.1668 11.0832 10.4168 11.8332 9.50016 11.8332C8.5835 11.8332 7.8335 11.0832 7.8335 10.1665C7.8335 9.24984 8.5835 8.49984 9.50016 8.49984Z" fill="#111111"/>
</svg>
