<svg width="34" height="28" viewBox="0 0 34 28" fill="none" xmlns="http://www.w3.org/2000/svg">
<path d="M17.0002 27.3332H0.333496V23.9998H9.91683C8.70016 19.3165 5.01683 15.6498 0.333496 14.4332C1.40016 14.1665 2.51683 13.9998 3.66683 13.9998C11.0335 13.9998 17.0002 19.9665 17.0002 27.3332ZM33.6668 14.4332C32.6002 14.1665 31.4835 13.9998 30.3335 13.9998C25.4502 13.9998 21.2002 16.6332 18.8668 20.5498C19.3502 21.6498 19.7502 22.7998 19.9835 23.9998C20.2002 25.0832 20.3168 26.1998 20.3168 27.3332H33.6502V23.9998H24.0668C25.3002 19.3165 28.9835 15.6498 33.6668 14.4332ZM23.0668 12.3665C24.3668 8.88317 26.7835 5.9665 29.8835 4.03317C22.7335 4.2665 17.0002 10.1165 17.0002 17.3332C17.0002 17.3498 17.0002 17.3665 17.0002 17.3665C18.5835 15.2498 20.6668 13.5332 23.0668 12.3665ZM16.0335 8.74984C14.6335 5.09984 11.8002 2.14984 8.16683 0.666504C10.5668 3.7665 12.0002 7.63317 12.0002 11.8498C12.0002 12.1998 11.9502 12.5332 11.9335 12.8665C12.6502 13.2665 13.3168 13.7332 13.9668 14.2332C14.3168 12.2665 15.0502 10.4165 16.0335 8.74984Z" fill="black"/>
</svg>
