<svg width="40" height="22" viewBox="0 0 40 22" fill="none" xmlns="http://www.w3.org/2000/svg">
<path d="M13.8212 10.92V15.84C12.0841 16.44 11.1274 16.632 10.0449 16.632C7.12457 16.632 4.93433 15.528 3.5497 14.232C1.91331 12.672 1.00701 10.488 1.00701 8.4C1.00701 6.12 2.03919 3.96 3.5497 2.496C5.03503 1.056 7.27562 0 9.89384 0C10.6994 0 12.0086 0.12 13.8212 0.816V5.784C12.4114 4.128 10.7498 4.032 10.0197 4.032C8.76096 4.032 7.8043 4.392 6.9987 5.088C5.96652 6 5.53854 7.248 5.53854 8.376C5.53854 9.48 6.01687 10.704 6.898 11.496C7.62808 12.144 8.78613 12.6 10.0197 12.6C10.6743 12.6 12.2855 12.528 13.8212 10.92Z" fill="black"/>
<path d="M15.6556 9.552V6.672H19.4822V3H22.755V6.672H26.5816V9.552H22.755V13.224H19.4822V9.552H15.6556Z" fill="black"/>
<path d="M28.2432 9.552V6.672H32.0698V3H35.3426V6.672H39.1692V9.552H35.3426V13.224H32.0698V9.552H28.2432Z" fill="black"/>
<path d="M0 18.672H40V22H0V18.672Z" fill="black"/>
</svg>
