<svg width="811" height="513" viewBox="0 0 811 513" fill="none" xmlns="http://www.w3.org/2000/svg">
<path d="M3.61426 220.658C12.081 241.536 35.8582 251.542 56.7226 243.006C77.5826 234.456 87.6287 210.603 79.162 189.724C70.6996 168.837 46.9094 158.836 26.0579 167.368C5.18922 175.913 -4.86113 199.775 3.61426 220.658ZM119.562 244.989C123.129 233.66 124.061 221.668 121.608 210.05L113.442 171.497C109.233 151.616 97.8318 133.818 81.0334 122.433C77.0334 119.73 73.279 116.542 69.8437 112.873C44.0747 85.3743 46.2629 41.6484 75.2552 16.7646C101.136 -5.44734 140.13 -4.2588 164.514 19.4653C197.372 51.4121 182.073 87.2106 168.767 106.769C161.305 117.75 158.724 131.324 161.474 144.303L168.36 176.849C172.647 197.124 195.174 207.536 213.405 197.691L234.552 186.264C259.433 172.812 277.352 149.639 285.265 122.446C289.292 108.615 296.957 95.6408 308.206 85.0513C342.186 53.0716 395.82 55.1721 427.011 90.0925C455.952 122.49 453.915 175.307 422.582 205.553C399.875 227.471 368.084 233.889 340.118 225.183C313.27 216.834 284.211 219.233 259.42 232.632L219.28 254.322C208.651 260.062 199.57 268.373 193.238 278.664C191.381 281.696 189.102 284.513 186.396 287.058C174.474 298.281 157.624 300.952 143.389 295.324L139.246 293.402C135.41 291.359 131.821 288.672 128.684 285.319C118.225 274.163 115.251 258.651 119.562 244.989Z" fill="url(#paint0_linear_1_113)"/>
<path d="M732.067 324.36C740.533 345.238 764.311 355.244 785.179 346.699C806.031 338.167 816.081 314.305 807.615 293.426C799.143 272.535 775.375 262.533 754.506 271.078C733.642 279.615 723.596 303.468 732.067 324.36ZM697.638 268.219C693.489 279.351 691.959 291.291 693.812 303.016L700 341.946C703.19 362.023 713.662 380.383 729.86 392.609C733.707 395.518 737.303 398.899 740.537 402.74C764.866 431.522 760.447 475.083 730.234 498.448C703.256 519.309 664.382 516.121 641.23 491.185C610.059 457.599 627.155 422.618 641.443 403.762C649.464 393.18 652.738 379.749 650.65 366.648L645.435 333.782C642.184 313.319 620.229 301.751 601.52 310.653L579.828 320.986C554.287 333.139 535.215 355.386 525.929 382.129C521.189 395.745 512.879 408.298 501.108 418.3C465.537 448.507 412.092 443.665 382.732 407.186C355.483 373.336 360.21 320.691 393.038 292.086C416.84 271.345 448.906 266.579 476.403 276.696C502.778 286.42 531.919 285.515 557.357 273.399L598.55 253.794C609.446 248.613 618.935 240.769 625.785 230.805C627.799 227.892 630.218 225.186 633.047 222.787C645.526 212.19 662.489 210.371 676.413 216.731L680.458 218.854C684.184 221.102 687.632 223.969 690.585 227.479C700.466 239.164 702.636 254.803 697.638 268.219Z" fill="url(#paint1_linear_1_113)"/>
<defs>
<linearGradient id="paint0_linear_1_113" x1="-9.3574" y1="178.523" x2="761.566" y2="389.602" gradientUnits="userSpaceOnUse">
<stop stop-color="white" stop-opacity="0.652873"/>
<stop offset="0.403152" stop-color="#C7C7C7" stop-opacity="0.779455"/>
<stop offset="0.541007" stop-color="#EBEBEB" stop-opacity="0.692871"/>
<stop offset="0.819808" stop-color="#A4A4A4" stop-opacity="0.645026"/>
<stop offset="1" stop-opacity="0"/>
</linearGradient>
<linearGradient id="paint1_linear_1_113" x1="-9.3574" y1="178.523" x2="761.566" y2="389.602" gradientUnits="userSpaceOnUse">
<stop stop-color="white" stop-opacity="0.652873"/>
<stop offset="0.403152" stop-color="#C7C7C7" stop-opacity="0.779455"/>
<stop offset="0.541007" stop-color="#EBEBEB" stop-opacity="0.692871"/>
<stop offset="0.819808" stop-color="#A4A4A4" stop-opacity="0.645026"/>
<stop offset="1" stop-opacity="0"/>
</linearGradient>
</defs>
</svg>
