<svg width="94" height="12" viewBox="0 0 94 12" fill="none" xmlns="http://www.w3.org/2000/svg">
<path d="M8.39287 11.783L7.30086 9.09597H2.85482L1.71601 11.783H0L5.17924 0L10.1089 11.783H8.39287ZM3.51003 7.49374H6.66125L5.11684 3.72184L3.51003 7.49374Z" fill="#111111"/>
<path d="M11.4232 0.650904H13.2796C14.5432 0.650904 15.3544 0.817803 16.0252 1.30181C17.164 2.11961 17.2576 3.43811 17.2576 3.92211C17.2576 5.52434 16.3372 6.69263 14.9488 7.02643L18.1936 11.783H16.2748L13.2952 7.2267H13.0144V11.783H11.4232V0.650904ZM13.0144 2.21975V5.758H13.5136C13.9504 5.758 15.7288 5.70793 15.7288 3.9388C15.7288 2.36996 14.3404 2.21975 13.5604 2.21975H13.0144Z" fill="#111111"/>
<path d="M25.0293 2.25313H22.6425V11.783H21.0513V2.25313H18.6644V0.650904H25.0293V2.25313Z" fill="#111111"/>
<path d="M28.0204 0.650904V5.05702H32.482V0.650904H34.0732V11.783H32.482V6.65925H28.0204V11.783H26.4292V0.650904H28.0204Z" fill="#111111"/>
<path d="M36.5753 0.650904H38.4318C39.6954 0.650904 40.5066 0.817803 41.1774 1.30181C42.3162 2.11961 42.4098 3.43811 42.4098 3.92211C42.4098 5.52434 41.4894 6.69263 40.101 7.02643L43.3458 11.783H41.427L38.4474 7.2267H38.1666V11.783H36.5753V0.650904ZM38.1666 2.21975V5.758H38.6658C39.1026 5.758 40.881 5.70793 40.881 3.9388C40.881 2.36996 39.4926 2.21975 38.7126 2.21975H38.1666Z" fill="#111111"/>
<path d="M49.8227 0.450626C52.9427 0.450626 55.2359 2.9541 55.2359 6.22531C55.2359 9.49652 52.9427 12 49.8227 12C46.7026 12 44.4094 9.49652 44.4094 6.22531C44.4094 2.9541 46.7026 0.450626 49.8227 0.450626ZM49.8227 10.4312C52.0535 10.4312 53.6447 8.69541 53.6447 6.22531C53.6447 3.75522 52.0535 2.01947 49.8227 2.01947C47.5918 2.01947 46.0006 3.75522 46.0006 6.22531C46.0006 8.69541 47.5918 10.4312 49.8227 10.4312Z" fill="#111111"/>
<path d="M58.8245 0.650904V5.05702H63.2862V0.650904H64.8774V11.783H63.2862V6.65925H58.8245V11.783H57.2333V0.650904H58.8245Z" fill="#AD4844"/>
<path d="M74.5867 11.783L73.4947 9.09597H69.0487L67.9099 11.783H66.1939L71.3731 0L76.3028 11.783H74.5867ZM69.7039 7.49374H72.8551L71.3107 3.72184L69.7039 7.49374Z" fill="#AD4844"/>
<path d="M77.6171 0.650904H79.4735C80.7371 0.650904 81.5483 0.817803 82.2191 1.30181C83.3579 2.11961 83.4515 3.43811 83.4515 3.92211C83.4515 5.52434 82.5311 6.69263 81.1427 7.02643L84.3875 11.783H82.4687L79.4891 7.2267H79.2083V11.783H77.6171V0.650904ZM79.2083 2.21975V5.758H79.7075C80.1443 5.758 81.9227 5.70793 81.9227 3.9388C81.9227 2.36996 80.5343 2.21975 79.7543 2.21975H79.2083Z" fill="#AD4844"/>
<path d="M85.9503 0.650904H88.1343C89.5852 0.650904 90.8488 0.817803 92.0032 1.73574C93.2668 2.75382 94 4.37274 94 6.22531C94 8.07789 93.2824 9.68011 91.9096 10.7149C90.6928 11.6328 89.554 11.783 88.1031 11.783H85.9503V0.650904ZM87.5415 2.25313V10.1808H88.228C89.008 10.1808 90.0844 10.114 90.9892 9.39638C91.7068 8.81224 92.4088 7.74409 92.4088 6.22531C92.4088 4.75661 91.7536 3.60501 91.0048 3.02086C90.1 2.31989 88.9924 2.25313 88.228 2.25313H87.5415Z" fill="#AD4844"/>
</svg>
